
      <svg viewBox="0 0 222 31" fill="none" xmlns="http://www.w3.org/2000/svg" xmlns:anim="http://www.w3.org/2000/anim" anim="" anim:transform-origin="50% 50%" anim:duration="1" anim:ease="ease-in-out">
        <path id="OlympicGames" d="M20.946 13.0909C20.946 15.4702 20.495 17.4943 19.593 19.1634C18.6982 20.8324 17.4766 22.1072 15.9283 22.9879C14.3871 23.8615 12.6541 24.2983 10.7294 24.2983C8.79048 24.2983 7.05043 23.858 5.50923 22.9773C3.96804 22.0966 2.75 20.8217 1.85511 19.1527C0.960227 17.4837 0.512784 15.4631 0.512784 13.0909C0.512784 10.7116 0.960227 8.6875 1.85511 7.01847C2.75 5.34943 3.96804 4.07812 5.50923 3.20455C7.05043 2.32386 8.79048 1.88352 10.7294 1.88352C12.6541 1.88352 14.3871 2.32386 15.9283 3.20455C17.4766 4.07812 18.6982 5.34943 19.593 7.01847C20.495 8.6875 20.946 10.7116 20.946 13.0909ZM16.2692 13.0909C16.2692 11.5497 16.0384 10.25 15.5767 9.19176C15.1222 8.13352 14.4794 7.33097 13.6484 6.78409C12.8175 6.23722 11.8445 5.96378 10.7294 5.96378C9.61435 5.96378 8.64134 6.23722 7.81037 6.78409C6.9794 7.33097 6.3331 8.13352 5.87145 9.19176C5.4169 10.25 5.18963 11.5497 5.18963 13.0909C5.18963 14.6321 5.4169 15.9318 5.87145 16.9901C6.3331 18.0483 6.9794 18.8509 7.81037 19.3977C8.64134 19.9446 9.61435 20.218 10.7294 20.218C11.8445 20.218 12.8175 19.9446 13.6484 19.3977C14.4794 18.8509 15.1222 18.0483 15.5767 16.9901C16.0384 15.9318 16.2692 14.6321 16.2692 13.0909ZM28.8162 2.18182V24H24.2779V2.18182H28.8162ZM35.2536 30.1364C34.6783 30.1364 34.1385 30.0902 33.6342 29.9979C33.1371 29.9126 32.7251 29.8026 32.3984 29.6676L33.4212 26.2798C33.9538 26.4432 34.4332 26.532 34.8594 26.5462C35.2926 26.5604 35.6655 26.4609 35.978 26.2479C36.2976 26.0348 36.5568 25.6726 36.7557 25.1612L37.022 24.4688L31.152 7.63636H35.9247L39.3125 19.6534H39.483L42.9027 7.63636H47.7074L41.3473 25.7685C41.0419 26.6491 40.6264 27.4162 40.1009 28.0696C39.5824 28.7301 38.9254 29.2379 38.13 29.593C37.3345 29.9553 36.3757 30.1364 35.2536 30.1364ZM50.0298 24V7.63636H54.3551V10.5234H54.5469C54.8878 9.56463 55.456 8.80824 56.2514 8.25426C57.0469 7.70028 57.9986 7.4233 59.1065 7.4233C60.2287 7.4233 61.1839 7.70384 61.9723 8.26491C62.7607 8.81889 63.2862 9.57173 63.549 10.5234H63.7195C64.0533 9.58594 64.657 8.83665 65.5305 8.27557C66.4112 7.70739 67.4517 7.4233 68.652 7.4233C70.179 7.4233 71.4183 7.9098 72.37 8.88281C73.3288 9.84872 73.8082 11.2195 73.8082 12.995V24H69.2805V13.8899C69.2805 12.9808 69.0391 12.299 68.5561 11.8445C68.0732 11.3899 67.4695 11.1626 66.745 11.1626C65.9212 11.1626 65.2784 11.4254 64.8168 11.951C64.3551 12.4695 64.1243 13.1548 64.1243 14.0071V24H59.7244V13.794C59.7244 12.9915 59.4936 12.3523 59.032 11.8764C58.5774 11.4006 57.9773 11.1626 57.2315 11.1626C56.7273 11.1626 56.2727 11.2905 55.8679 11.5462C55.4702 11.7947 55.1541 12.1463 54.9197 12.6009C54.6854 13.0483 54.5682 13.5739 54.5682 14.1776V24H50.0298ZM77.3931 30.1364V7.63636H81.8675V10.3849H82.07C82.2688 9.9446 82.5565 9.49716 82.9329 9.04261C83.3164 8.58097 83.8136 8.19744 84.4244 7.89205C85.0423 7.57955 85.8093 7.4233 86.7255 7.4233C87.9187 7.4233 89.0195 7.7358 90.0281 8.3608C91.0366 8.97869 91.8427 9.91264 92.4464 11.1626C93.0501 12.4055 93.3519 13.9645 93.3519 15.8395C93.3519 17.6648 93.0572 19.206 92.4677 20.4631C91.8853 21.7131 91.0898 22.6612 90.0813 23.3075C89.0799 23.9467 87.9577 24.2663 86.7148 24.2663C85.8342 24.2663 85.0849 24.1207 84.467 23.8295C83.8562 23.5384 83.3555 23.1726 82.9648 22.7322C82.5742 22.2848 82.2759 21.8338 82.07 21.3793H81.9315V30.1364H77.3931ZM81.8356 15.8182C81.8356 16.7912 81.9705 17.6399 82.2404 18.3643C82.5103 19.0888 82.9009 19.6534 83.4123 20.0582C83.9237 20.456 84.5451 20.6548 85.2766 20.6548C86.0153 20.6548 86.6403 20.4524 87.1516 20.0476C87.663 19.6357 88.0501 19.0675 88.3129 18.343C88.5827 17.6115 88.7177 16.7699 88.7177 15.8182C88.7177 14.8736 88.5863 14.0426 88.3235 13.3253C88.0607 12.608 87.6737 12.0469 87.1623 11.642C86.6509 11.2372 86.0224 11.0348 85.2766 11.0348C84.538 11.0348 83.913 11.2301 83.4016 11.6207C82.8974 12.0114 82.5103 12.5653 82.2404 13.2827C81.9705 14 81.8356 14.8452 81.8356 15.8182ZM96.3775 24V7.63636H100.916V24H96.3775ZM98.6573 5.52699C97.9826 5.52699 97.4038 5.30327 96.9208 4.85582C96.445 4.40128 96.207 3.85795 96.207 3.22585C96.207 2.60085 96.445 2.06463 96.9208 1.61719C97.4038 1.16264 97.9826 0.935368 98.6573 0.935368C99.332 0.935368 99.9073 1.16264 100.383 1.61719C100.866 2.06463 101.108 2.60085 101.108 3.22585C101.108 3.85795 100.866 4.40128 100.383 4.85582C99.9073 5.30327 99.332 5.52699 98.6573 5.52699ZM111.945 24.3196C110.269 24.3196 108.827 23.9645 107.619 23.2543C106.419 22.5369 105.496 21.5426 104.85 20.2713C104.21 19 103.891 17.5369 103.891 15.8821C103.891 14.206 104.214 12.7358 104.86 11.4716C105.514 10.2003 106.441 9.20952 107.641 8.49929C108.841 7.78196 110.269 7.4233 111.923 7.4233C113.351 7.4233 114.601 7.68253 115.673 8.20099C116.746 8.71946 117.595 9.44744 118.22 10.3849C118.845 11.3224 119.189 12.4233 119.253 13.6875H114.97C114.85 12.8707 114.53 12.2138 114.012 11.7166C113.5 11.2124 112.829 10.9602 111.998 10.9602C111.295 10.9602 110.681 11.152 110.155 11.5355C109.637 11.9119 109.232 12.4624 108.941 13.1868C108.649 13.9112 108.504 14.7884 108.504 15.8182C108.504 16.8622 108.646 17.75 108.93 18.4815C109.221 19.2131 109.629 19.7706 110.155 20.1541C110.681 20.5376 111.295 20.7294 111.998 20.7294C112.517 20.7294 112.982 20.6229 113.394 20.4098C113.813 20.1967 114.157 19.8878 114.427 19.483C114.704 19.071 114.885 18.5774 114.97 18.0021H119.253C119.182 19.2521 118.841 20.353 118.23 21.3047C117.627 22.2493 116.792 22.9879 115.727 23.5206C114.661 24.0533 113.401 24.3196 111.945 24.3196ZM136.711 9.23438C136.562 8.71591 136.353 8.25781 136.083 7.86008C135.813 7.45526 135.483 7.11435 135.092 6.83736C134.708 6.55327 134.268 6.33665 133.771 6.1875C133.281 6.03835 132.738 5.96378 132.141 5.96378C131.026 5.96378 130.046 6.24077 129.201 6.79474C128.363 7.34872 127.709 8.15483 127.24 9.21307C126.772 10.2642 126.537 11.5497 126.537 13.0696C126.537 14.5895 126.768 15.8821 127.23 16.9474C127.691 18.0128 128.345 18.826 129.19 19.3871C130.035 19.9411 131.033 20.218 132.184 20.218C133.228 20.218 134.119 20.0334 134.858 19.6641C135.603 19.2876 136.172 18.7585 136.562 18.0767C136.96 17.3949 137.159 16.5888 137.159 15.6584L138.096 15.7969H132.471V12.3239H141.601V15.0724C141.601 16.9901 141.196 18.6378 140.387 20.0156C139.577 21.3864 138.462 22.4446 137.042 23.1903C135.621 23.929 133.995 24.2983 132.162 24.2983C130.117 24.2983 128.32 23.8473 126.772 22.9453C125.223 22.0362 124.016 20.7472 123.15 19.0781C122.29 17.402 121.86 15.4134 121.86 13.1122C121.86 11.3437 122.116 9.76705 122.627 8.3821C123.146 6.99006 123.87 5.81108 124.801 4.84517C125.731 3.87926 126.814 3.14418 128.05 2.63991C129.286 2.13565 130.625 1.88352 132.066 1.88352C133.302 1.88352 134.453 2.06463 135.518 2.42685C136.583 2.78196 137.528 3.28622 138.352 3.93963C139.183 4.59304 139.861 5.37074 140.387 6.27273C140.912 7.16761 141.25 8.15483 141.399 9.23438H136.711ZM149.647 24.3089C148.603 24.3089 147.673 24.1278 146.856 23.7656C146.039 23.3963 145.393 22.853 144.917 22.1357C144.448 21.4112 144.214 20.5092 144.214 19.4297C144.214 18.5206 144.381 17.7571 144.715 17.1392C145.048 16.5213 145.503 16.0241 146.078 15.6477C146.654 15.2713 147.307 14.9872 148.039 14.7955C148.777 14.6037 149.551 14.4688 150.361 14.3906C151.313 14.2912 152.08 14.1989 152.662 14.1136C153.244 14.0213 153.667 13.8864 153.93 13.7088C154.193 13.5312 154.324 13.2685 154.324 12.9205V12.8565C154.324 12.1818 154.111 11.6598 153.685 11.2905C153.266 10.9212 152.669 10.7365 151.895 10.7365C151.078 10.7365 150.428 10.9176 149.945 11.2798C149.463 11.6349 149.143 12.0824 148.987 12.6222L144.789 12.2812C145.002 11.2869 145.421 10.4276 146.046 9.70312C146.671 8.97159 147.477 8.41051 148.465 8.01989C149.459 7.62216 150.61 7.4233 151.916 7.4233C152.825 7.4233 153.695 7.52983 154.526 7.7429C155.365 7.95597 156.107 8.28622 156.753 8.73366C157.406 9.18111 157.921 9.75639 158.298 10.4595C158.674 11.1555 158.862 11.9901 158.862 12.9631V24H154.558V21.7308H154.431C154.168 22.2422 153.816 22.6932 153.376 23.0838C152.936 23.4673 152.406 23.7692 151.789 23.9893C151.171 24.2024 150.457 24.3089 149.647 24.3089ZM150.947 21.1768C151.615 21.1768 152.204 21.0455 152.715 20.7827C153.227 20.5128 153.628 20.1506 153.919 19.696C154.21 19.2415 154.356 18.7266 154.356 18.1513V16.4148C154.214 16.5071 154.019 16.5923 153.77 16.6705C153.529 16.7415 153.255 16.8089 152.95 16.8729C152.644 16.9297 152.339 16.983 152.034 17.0327C151.728 17.0753 151.451 17.1143 151.203 17.1499C150.67 17.228 150.205 17.3523 149.807 17.5227C149.409 17.6932 149.1 17.924 148.88 18.2152C148.66 18.4993 148.55 18.8544 148.55 19.2805C148.55 19.8984 148.774 20.3707 149.221 20.6974C149.676 21.017 150.251 21.1768 150.947 21.1768ZM162.383 24V7.63636H166.709V10.5234H166.9C167.241 9.56463 167.809 8.80824 168.605 8.25426C169.4 7.70028 170.352 7.4233 171.46 7.4233C172.582 7.4233 173.537 7.70384 174.326 8.26491C175.114 8.81889 175.64 9.57173 175.903 10.5234H176.073C176.407 9.58594 177.01 8.83665 177.884 8.27557C178.765 7.70739 179.805 7.4233 181.006 7.4233C182.532 7.4233 183.772 7.9098 184.724 8.88281C185.682 9.84872 186.162 11.2195 186.162 12.995V24H181.634V13.8899C181.634 12.9808 181.393 12.299 180.91 11.8445C180.427 11.3899 179.823 11.1626 179.099 11.1626C178.275 11.1626 177.632 11.4254 177.17 11.951C176.709 12.4695 176.478 13.1548 176.478 14.0071V24H172.078V13.794C172.078 12.9915 171.847 12.3523 171.385 11.8764C170.931 11.4006 170.331 11.1626 169.585 11.1626C169.081 11.1626 168.626 11.2905 168.221 11.5462C167.824 11.7947 167.508 12.1463 167.273 12.6009C167.039 13.0483 166.922 13.5739 166.922 14.1776V24H162.383ZM197.204 24.3196C195.521 24.3196 194.072 23.9787 192.857 23.2969C191.65 22.608 190.72 21.6349 190.066 20.3778C189.413 19.1136 189.086 17.6186 189.086 15.8928C189.086 14.2095 189.413 12.7322 190.066 11.4609C190.72 10.1896 191.639 9.19886 192.825 8.48864C194.019 7.77841 195.418 7.4233 197.023 7.4233C198.102 7.4233 199.107 7.5973 200.038 7.94531C200.975 8.28622 201.792 8.80114 202.488 9.49006C203.191 10.179 203.738 11.0455 204.129 12.0895C204.519 13.1264 204.715 14.3409 204.715 15.733V16.9794H190.897V14.1669H200.443C200.443 13.5135 200.301 12.9347 200.017 12.4304C199.732 11.9261 199.338 11.532 198.834 11.2479C198.337 10.9567 197.758 10.8111 197.097 10.8111C196.409 10.8111 195.798 10.9709 195.265 11.2905C194.74 11.603 194.328 12.0256 194.029 12.5582C193.731 13.0838 193.578 13.6697 193.571 14.3161V16.9901C193.571 17.7997 193.72 18.4993 194.019 19.0888C194.324 19.6783 194.754 20.1328 195.308 20.4524C195.862 20.772 196.519 20.9318 197.279 20.9318C197.783 20.9318 198.244 20.8608 198.664 20.7188C199.083 20.5767 199.441 20.3636 199.74 20.0795C200.038 19.7955 200.265 19.4474 200.421 19.0355L204.619 19.3125C204.406 20.321 203.969 21.2017 203.308 21.9545C202.655 22.7003 201.81 23.2827 200.773 23.7017C199.743 24.1136 198.553 24.3196 197.204 24.3196ZM221.291 12.3026L217.137 12.5582C217.066 12.2031 216.913 11.8835 216.678 11.5994C216.444 11.3082 216.135 11.0774 215.752 10.907C215.375 10.7294 214.924 10.6406 214.399 10.6406C213.695 10.6406 213.102 10.7898 212.619 11.0881C212.137 11.3793 211.895 11.7699 211.895 12.2599C211.895 12.6506 212.051 12.9808 212.364 13.2507C212.676 13.5206 213.213 13.7372 213.972 13.9006L216.934 14.4972C218.525 14.8239 219.711 15.3494 220.492 16.0739C221.274 16.7983 221.664 17.75 221.664 18.929C221.664 20.0014 221.348 20.9425 220.716 21.7521C220.091 22.5618 219.232 23.1939 218.138 23.6484C217.051 24.0959 215.798 24.3196 214.377 24.3196C212.211 24.3196 210.485 23.8686 209.2 22.9666C207.921 22.0575 207.172 20.8217 206.952 19.2592L211.416 19.0249C211.551 19.6854 211.877 20.1896 212.396 20.5376C212.914 20.8786 213.578 21.049 214.388 21.049C215.183 21.049 215.823 20.8963 216.306 20.5909C216.796 20.2784 217.044 19.8771 217.051 19.3871C217.044 18.9751 216.87 18.6378 216.529 18.375C216.188 18.1051 215.663 17.8991 214.953 17.7571L212.119 17.1925C210.521 16.8729 209.331 16.3189 208.55 15.5305C207.776 14.7422 207.389 13.7372 207.389 12.5156C207.389 11.4645 207.673 10.5589 208.241 9.79901C208.816 9.03906 209.622 8.45313 210.659 8.04119C211.703 7.62926 212.925 7.4233 214.324 7.4233C216.391 7.4233 218.017 7.86009 219.203 8.73366C220.396 9.60724 221.093 10.7969 221.291 12.3026Z" fill="black"></path>
      </svg>